<svg data-v-0dd9719b="" version="1.0" xmlns="http://www.w3.org/2000/svg" xmlns:xlink="http://www.w3.org/1999/xlink" width="100%" height="100%" viewBox="0 0 340.000000 250.000000" preserveAspectRatio="xMidYMid meet" color-interpolation-filters="sRGB" style="margin: auto;"> <rect data-v-0dd9719b="" x="0" y="0" width="100%" height="100%" fill="#fff" fill-opacity="1" class="background"></rect> <rect data-v-0dd9719b="" x="0" y="0" width="100%" height="100%" fill="url(#watermark)" fill-opacity="1" class="watermarklayer"></rect> <g data-v-0dd9719b="" fill="#333" class="icon-text-wrapper icon-svg-group iconsvg" transform="translate(48.785003662109375,92.12940979003906)"><g class="iconsvg-imagesvg" transform="translate(0,0)"><g><rect fill="#333" fill-opacity="0" stroke-width="2" x="0" y="0" width="60" height="65.74117698620532" class="image-rect"></rect> <svg x="0" y="0" width="60" height="65.74117698620532" filtersec="colorsb910704951" class="image-svg-svg primary" style="overflow: visible;"><svg xmlns="http://www.w3.org/2000/svg" viewBox="0.0018437110120430589 0 91.22099304199219 99.94999694824219"><path d="M71.1 48.23c0-1.43 0-2.84-.1-4.23 0-1.09-.13-2.16-.22-3.23-.18-2.27-.41-4.49-.75-6.64-.17-1.11-.38-2.19-.6-3.27a72.55 72.55 0 0 0-2.27-8.67c-.25-.75-.51-1.48-.78-2.2-.59-1.56-1.22-3-1.9-4.44-.35-.71-.69-1.42-1.06-2.1C58.85 5.1 52.61 0 45.61 0c-11 0-20.2 12.65-23.81 30.86 1.78-1.36 3.62-2.69 5.58-4C31 13.64 37.91 4.48 45.61 4.48c4.84 0 9.35 3.63 12.94 9.6.4.65.77 1.34 1.14 2a47 47 0 0 1 2 4.27c.28.69.53 1.41.78 2.13.5 1.4 1 2.85 1.39 4.36q.43 1.61.81 3.27c.46 2.06.85 4.2 1.15 6.41.15 1 .29 2.06.39 3.13a84.71 84.71 0 0 1 .43 8.53 77.59 77.59 0 0 1-4.17 25.7c-.25.72-.51 1.44-.78 2.13-.62 1.53-1.29 2.94-2 4.29-.36.69-.73 1.36-1.11 2-2.44 4.05-5.3 7-8.39 8.49a5.68 5.68 0 0 0-4.57-2.41 5.79 5.79 0 0 0 0 11.57 5.71 5.71 0 0 0 5.57-4.69C55.9 93.38 60.1 89.07 63.41 83c.37-.67.72-1.38 1.06-2.09q1-2.11 1.91-4.45c.27-.72.53-1.45.78-2.2a83.14 83.14 0 0 0 3.94-26.03z" fill="#1d3bd4"></path><path d="M36.26 74.69C23 78.14 11.58 76.77 7.72 70.1c-2.42-4.19-1.52-9.91 1.85-16 .37-.66.78-1.33 1.21-2a46.78 46.78 0 0 1 2.7-3.86c.46-.58 1-1.17 1.46-1.75 1-1.13 2-2.26 3.08-3.38.78-.78 1.59-1.56 2.43-2.33 1.55-1.43 3.2-2.84 5-4.21.83-.64 1.65-1.28 2.52-1.9C30.19 33 32.59 31.48 35.1 30a77.72 77.72 0 0 1 24.34-9.24 43 43 0 0 0-2-4.24 82.63 82.63 0 0 0-24.52 9.6c-1.24.72-2.43 1.46-3.61 2.21-.92.59-1.81 1.19-2.69 1.8-1.87 1.29-3.68 2.61-5.37 4-.88.71-1.71 1.43-2.53 2.15a71.93 71.93 0 0 0-6.38 6.31c-.53.59-1 1.18-1.52 1.77Q9.2 46.3 7.88 48.23c-.44.65-.88 1.31-1.28 2-5 8.13-6.25 16.09-2.75 22.15 3.37 5.84 10.48 8.73 19.51 8.73a60.61 60.61 0 0 0 19.11-3.53c-2.06-.9-4.13-1.84-6.21-2.89zM6.6 46.26c.91-1.3 1.89-2.6 3-3.9-2.26-4.1-3.38-8-3.15-11.43a5.76 5.76 0 0 0 2.23-10.71 5.87 5.87 0 0 0-2.89-.77 5.81 5.81 0 0 0-5 2.89 5.72 5.72 0 0 0-.59 4.39 5.64 5.64 0 0 0 1.86 2.78C1.37 34.57 3 40.36 6.6 46.26zM72.56 36.28c.29 2.23.52 4.49.65 6.82 9.64 9.8 14.14 20.34 10.3 27-2.42 4.19-7.83 6.28-14.8 6.41q-.87 2.35-1.88 4.51h1c9 0 16.14-2.89 19.51-8.73 5.56-9.51-.82-23.77-14.78-36.01z" fill="#1d3bd4"></path><path d="M45.61 71.56c-1-.4-1.93-.79-2.91-1.23a86.795 86.795 0 0 1-7.6-3.9A77.78 77.78 0 0 1 14.93 50a44 44 0 0 0-2.64 3.9 82.87 82.87 0 0 0 20.58 16.4c1.24.72 2.48 1.38 3.72 2 1 .51 1.94 1 2.9 1.43q3.09 1.47 6.12 2.66c1.06.4 2.1.77 3.15 1.13a71.29 71.29 0 0 0 8.64 2.38 42.75 42.75 0 0 0 2-4.23c-1.46-.27-2.95-.59-4.47-1-1.07-.28-2.15-.6-3.24-.93-1.97-.61-4.02-1.34-6.08-2.18zM90.45 22.34a5.81 5.81 0 0 0-5-2.89 5.63 5.63 0 0 0-1.9.37c-4-3.09-9.84-4.56-16.71-4.4.68 1.45 1.31 3 1.89 4.53 4.71.09 8.68 1.09 11.52 3a5.72 5.72 0 0 0 .2 5.17 5.81 5.81 0 0 0 5 2.89 5.79 5.79 0 0 0 5-8.68z" fill="#1d3bd4"></path><circle cx="45.61" cy="48.81" r="11.16" fill="#f39a2c"></circle></svg></svg> <!----></g></g> <g transform="translate(67,5.054340362548828)"><g data-gra="path-name" fill-rule="" class="tp-name iconsvg-namesvg" transform="translate(0,0)"><g transform="scale(1)"><g><path d="M20.21-35.86L20.21-35.86Q21.45-35.68 23.73-35.33L23.73-35.33Q26.02-35.16 25.84-34.98L25.84-34.98Q25.84-34.63 25.66-33.93L25.66-33.93Q24.96-32.52 24.61-30.59L24.61-30.59Q24.26-27.77 24.08-24.61L24.08-24.61 34.1-24.61Q40.43-24.61 41.48-24.96L41.48-24.96 41.48-20.57Q40.43-21.09 34.28-21.09L34.28-21.09 24.96-21.09Q29.18-4.04 43.24-0.7L43.24-0.7Q40.43 0.35 38.32 3.34L38.32 3.34Q25.31-4.39 22.68-17.58L22.68-17.58Q20.21-4.22 4.75 3.52L4.75 3.52Q4.04 1.93 0.88 0L0.88 0Q17.4-5.27 19.86-21.09L19.86-21.09 10.55-21.09Q4.75-21.09 3.87-20.74L3.87-20.74 3.87-24.96Q4.92-24.61 10.55-24.61L10.55-24.61 20.21-24.61Q20.92-29.36 20.21-35.86ZM17.75-5.27L21.62-6.5 24.79 0.7 20.57 2.11Q20.04-1.05 17.75-5.27L17.75-5.27ZM79.28-24.08L63.11-24.08 63.11-20.04 79.28-20.04 79.28-24.08ZM79.28-17.4L63.11-17.4 63.11-13.18 79.28-13.18 79.28-17.4ZM62.23-8.26L62.23-8.26 65.92-5.98Q62.4-1.23 58.18 1.93L58.18 1.93Q56.95 0.88 54.49 0L54.49 0Q58.36-2.46 62.23-8.26ZM75.59-5.98L78.4-8.09Q80.68-6.33 84.02-3.16L84.02-3.16Q85.61-1.58 86.66-0.53L86.66-0.53 82.97 1.58Q80.16-1.93 75.59-5.98L75.59-5.98ZM85.61-34.8L85.61-34.8 85.61-30.94Q80.68-31.29 78.57-31.29L78.57-31.29 68.38-31.29Q68.55-31.29 68.91-31.11L68.91-31.11Q72.25-30.23 72.07-29.71L72.07-29.71Q72.07-29.53 71.72-29.53L71.72-29.53Q71.19-29.36 71.02-29L71.02-29Q70.66-28.65 70.31-27.6L70.31-27.6Q69.96-27.07 69.79-26.89L69.79-26.89 79.28-26.89Q80.68-26.89 83.14-27.25L83.14-27.25Q82.62-25.14 82.79-23.73L82.79-23.73 82.79-12.83Q82.79-11.78 82.97-10.02L82.97-10.02Q80.33-10.37 78.93-10.37L78.93-10.37 72.95-10.37 72.95 1.05Q72.42 3.69 65.92 4.04L65.92 4.04Q65.92 1.93 64.69 0L64.69 0Q68.91 0.7 69.26-0.7L69.26-0.7 69.26-10.37 61.7-10.37Q61-10.37 59.06-10.02L59.06-10.02Q59.41-12.3 59.41-13.89L59.41-13.89 59.41-24.43Q59.41-26.19 59.06-27.25L59.06-27.25Q61.35-26.72 63.28-26.89L63.28-26.89 66.45-26.89Q67.15-28.3 67.85-31.29L67.85-31.29 55.37-31.29Q55.37-21.8 55.2-17.93L55.2-17.93Q55.02-13.18 54.49-9.84L54.49-9.84Q53.61-2.99 50.27 2.46L50.27 2.46Q48.87 1.58 46.05 0.88L46.05 0.88Q49.92-3.16 51.33-11.43L51.33-11.43Q51.86-16.35 51.86-23.55L51.86-23.55Q52.03-30.23 51.68-34.63L51.68-34.63Q54.14-34.28 56.07-34.45L56.07-34.45 78.4-34.45Q80.33-34.28 85.61-34.8ZM98.96-36.04L98.96-36.04Q99.49-35.86 100.2-35.33L100.2-35.33Q103.01-33.93 102.83-33.57L102.83-33.57Q102.83-33.4 102.48-33.4L102.48-33.4Q101.78-33.05 101.07-32.34L101.07-32.34Q100.2-31.46 97.56-27.77L97.56-27.77Q95.63-25.31 94.57-23.73L94.57-23.73Q92.81-25.84 91.58-26.19L91.58-26.19Q96.5-30.41 98.96-36.04ZM122.17-36.04L122.17-36.04Q126.39-34.98 126.91-34.28L126.91-34.28Q126.91-34.1 126.56-33.57L126.56-33.57Q125.86-32.87 125.68-32.34L125.68-32.34Q125.51-31.64 124.98-30.23L124.98-30.23Q124.1-27.42 123.57-26.37L123.57-26.37 129.02-26.37Q131.48-26.37 133.42-26.72L133.42-26.72 133.42-23.2Q130.78-23.55 129.55-23.55L129.55-23.55 129.55-20.04Q129.38-10.72 126.04-5.63L126.04-5.63Q128.32-2.64 133.77-0.35L133.77-0.35Q133.95-0.18 133.59 0L133.59 0Q132.19 1.23 130.78 3.16L130.78 3.16Q127.62 1.23 124.1-2.64L124.1-2.64Q120.06 0.88 114.43 3.69L114.43 3.69Q113.03 1.93 111.27 1.05L111.27 1.05Q110.74 0.7 110.74 0.53L110.74 0.53Q117.42-0.88 121.99-5.8L121.99-5.8Q119.88-9.14 118.48-15.82L118.48-15.82 121.64-16.7Q122.52-11.95 123.93-8.79L123.93-8.79Q126.21-13.89 126.21-20.21L126.21-20.21 126.21-23.55 122.7-23.55Q120.94-18.98 119.71-17.23L119.71-17.23Q118.65-18.63 116.54-19.34L116.54-19.34Q120.76-23.55 122.17-36.04ZM109.16-35.68L109.16-35.68Q112.68-35.68 113.2-35.33L113.2-35.33Q113.2-35.16 113.03-34.8L113.03-34.8Q112.32-33.93 112.32-32.7L112.32-32.7 112.32-25.14 115.31-25.14 115.31-28.13Q115.31-31.11 115.14-32.34L115.14-32.34Q115.31-32.34 115.66-32.34L115.66-32.34Q119-31.99 118.83-31.82L118.83-31.82Q118.83-31.64 118.65-31.29L118.65-31.29Q117.95-30.23 117.95-27.95L117.95-27.95 117.95-26.54Q117.95-24.96 118.13-22.68L118.13-22.68Q117.42-23.03 114.79-23.03L114.79-23.03 106.35-23.03Q104.59-23.03 103.01-22.85L103.01-22.85Q103.01-23.03 103.01-23.38L103.01-23.38Q103.36-24.96 103.36-26.02L103.36-26.02 103.36-28.3Q103.36-29.88 103.18-31.99L103.18-31.99Q106.52-31.99 106.88-31.46L106.88-31.46Q106.88-31.29 106.7-30.94L106.7-30.94Q106-30.06 106-27.95L106-27.95 106-25.14 109.34-25.14 109.34-33.05Q109.34-34.1 109.16-35.68ZM98.96-26.19L98.96-26.19Q99.49-25.84 100.55-25.31L100.55-25.31Q103.01-23.91 102.83-23.73L102.83-23.73Q102.83-23.55 102.48-23.2L102.48-23.2Q101.78-22.85 101.6-22.5L101.6-22.5Q101.25-21.97 100.72-21.09L100.72-21.09Q100.02-20.21 99.67-19.51L99.67-19.51 99.67-4.57Q99.67 1.93 100.02 4.04L100.02 4.04 95.8 4.04Q96.33 0.7 96.33-3.16L96.33-3.16 96.33-14.41Q94.75-11.78 92.99-9.49L92.99-9.49Q92.29-12.48 91.23-13.89L91.23-13.89Q96.86-18.98 98.96-26.19ZM102.3-16.7L102.3-20.04Q102.48-20.04 102.48-20.04L102.48-20.04Q104.59-19.69 106.7-19.69L106.7-19.69 111.97-19.69Q114.61-19.69 116.02-20.04L116.02-20.04 116.02-16.7Q116.02-16.7 115.84-16.7L115.84-16.7Q114.08-17.23 111.97-17.23L111.97-17.23 106.7-17.23Q104.77-17.23 102.66-16.7L102.66-16.7Q102.48-16.7 102.3-16.7L102.3-16.7ZM100.02-1.41L100.02-1.41Q104.94-3.87 103.89-14.41L103.89-14.41Q103.89-14.41 104.41-14.41L104.41-14.41Q106.35-14.06 107.23-14.06L107.23-14.06 110.74-14.06Q111.8-14.06 113.73-14.24L113.73-14.24Q114.61-14.24 114.79-14.24L114.79-14.24Q114.26-9.49 114.26-6.5L114.26-6.5Q115.49-7.38 117.25-8.61L117.25-8.61Q117.77-9.14 118.13-9.32L118.13-9.32 119.18-6.15Q115.31-3.87 112.32-1.23L112.32-1.23 110.39-4.04Q110.39-4.04 110.57-4.22L110.57-4.22Q111.27-4.92 111.27-5.45L111.27-5.45 111.27-11.43 107.4-11.43Q107.4-2.99 103.36 0.7L103.36 0.7Q102.13-0.35 100.02-1.41ZM142.73-36.04L142.73-36.04Q143.09-36.04 143.96-35.86L143.96-35.86Q147.13-35.68 146.95-35.51L146.95-35.51Q146.95-35.33 146.78-34.8L146.78-34.8Q146.07-33.4 146.07-31.46L146.07-31.46 153.28-31.46Q153.46-35.16 153.28-36.04L153.28-36.04Q156.8-36.04 157.15-35.51L157.15-35.51Q157.15-35.33 156.97-35.16L156.97-35.16Q156.45-34.1 156.45-31.46L156.45-31.46 156.8-31.46Q158.73-31.46 160.66-31.82L160.66-31.82Q161.02-31.82 161.19-31.82L161.19-31.82 161.19-28.3Q161.19-28.3 160.84-28.3L160.84-28.3Q159.26-28.65 156.8-28.65L156.8-28.65 156.45-28.65 156.45-26.89Q156.45-25.14 156.62-23.2L156.62-23.2Q156.09-23.55 153.28-23.55L153.28-23.55 151.17-23.55 151.17-21.27 155.74-21.27Q159.26-21.27 159.79-21.62L159.79-21.62Q159.43-21.09 159.43-17.75L159.43-17.75 159.43-17.23Q159.43-13.89 159.79-13.18L159.79-13.18Q159.61-13.18 159.08-13.18L159.08-13.18Q157.15-13.54 155.39-13.54L155.39-13.54 151.17-13.54 151.17-11.25 154.69-11.25Q157.15-11.25 159.08-11.6L159.08-11.6Q159.43-11.6 159.43-11.6L159.43-11.6 159.43-8.44Q159.43-8.44 159.08-8.44L159.08-8.44Q157.32-8.79 154.69-8.79L154.69-8.79 151.17-8.79 151.17-6.33 154.51-6.33Q157.15-6.33 158.73-6.68L158.73-6.68Q158.91-6.68 158.91-6.68L158.91-6.68 158.91-3.52Q158.91-3.52 158.73-3.52L158.73-3.52Q157.32-3.87 154.69-3.87L154.69-3.87 151.17-3.87 151.17-1.58 159.08-2.46 158.91 0.18 139.57 2.81 138.52-0.35 148.01-1.23 148.01-3.87 145.02-3.87Q142.91-3.87 140.98-3.52L140.98-3.52Q140.27-3.52 140.1-3.52L140.1-3.52 140.1-6.68Q140.27-6.68 140.63-6.68L140.63-6.68Q142.73-6.33 145.02-6.33L145.02-6.33 148.18-6.33 148.18-8.79 144.32-8.79Q142.56-8.79 140.45-8.44L140.45-8.44Q139.92-8.44 139.75-8.44L139.75-8.44 139.75-11.6Q139.92-11.6 140.27-11.43L140.27-11.43Q142.03-11.07 144.14-11.07L144.14-11.07 148.18-11.07 148.18-13.54 143.26-13.54Q140.8-13.54 139.57-13.18L139.57-13.18Q139.92-13.89 139.92-17.05L139.92-17.05 139.92-18.11Q139.92-20.57 139.57-21.62L139.57-21.62Q140.45-21.27 143.26-21.27L143.26-21.27 148.18-21.27 148.18-23.55 146.25-23.55Q143.79-23.55 142.73-23.2L142.73-23.2Q142.91-23.55 142.91-27.25L142.91-27.25 142.91-28.48 142.38-28.48Q140.63-28.48 138.52-28.13L138.52-28.13Q138.16-28.13 137.99-28.13L137.99-28.13 137.99-31.64Q138.16-31.64 138.52-31.64L138.52-31.64Q140.63-31.29 142.56-31.29L142.56-31.29 142.91-31.29Q142.91-31.99 142.73-33.75L142.73-33.75Q142.56-35.86 142.73-36.04ZM164.53-35.86L164.53-35.86Q169.1-35.86 169.28-35.16L169.28-35.16Q169.28-34.98 168.93-34.45L168.93-34.45Q168.4-33.75 168.22-33.05L168.22-33.05Q168.22-32.17 168.22-30.23L168.22-30.23Q168.05-27.6 168.05-26.19L168.05-26.19Q173.67-26.02 176.31-26.54L176.31-26.54Q176.31-24.79 176.13-20.57L176.13-20.57Q175.43 0 174.9 0.35L174.9 0.35Q174.2 2.99 167.34 3.52L167.34 3.52Q166.99 1.05 165.59-0.53L165.59-0.53Q171.91 0.18 171.74-1.76L171.74-1.76Q172.09-3.34 172.62-19.69L172.62-19.69Q172.79-21.97 172.79-23.2L172.79-23.2 167.87-23.2Q167.34-2.81 160.66 4.22L160.66 4.22Q158.73 3.16 155.74 2.99L155.74 2.99Q164.53-1.05 164.53-23.2L164.53-23.2 164.18-23.2Q162.42-23.2 160.31-22.85L160.31-22.85Q159.79-22.85 159.61-22.85L159.61-22.85 159.61-26.54Q159.79-26.54 160.14-26.54L160.14-26.54Q161.89-26.19 164.18-26.19L164.18-26.19 164.71-26.19Q164.71-31.29 164.53-34.98L164.53-34.98Q164.53-35.68 164.53-35.86ZM153.28-28.65L145.9-28.65 145.9-25.84 153.28-25.84 153.28-28.65ZM148.18-15.82L148.18-19.16 142.91-19.16 142.91-15.82 148.18-15.82ZM156.62-19.16L151.17-19.16 151.17-15.82 156.62-15.82 156.62-19.16Z" transform="translate(-0.8799999952316284, 36.040000915527344)"></path></g> <!----> <!----> <!----> <!----> <!----> <!----> <!----></g></g> <g data-gra="path-slogan" fill-rule="" class="tp-slogan iconsvg-slogansvg" fill="#333" transform="translate(5,46.26000213623047)"><rect x="0" height="1" y="4.185000419616699" width="30.779998779296875"></rect> <rect height="1" y="4.185000419616699" width="30.779998779296875" x="134.64999389648438"></rect> <g transform="translate(33.779998779296875,0)"><g transform="scale(1)"><path d="M3.09-7.59L0.19-7.59L0.19-8.58L7.13-8.58L7.13-7.59L4.22-7.59L4.22 0L3.09 0L3.09-7.59ZM13.83 0L12.98-2.48L9.52-2.48L8.63 0L7.45 0L10.69-8.58L12-8.58L15.09 0L13.83 0ZM11.25-7.31L9.89-3.52L12.56-3.52L11.30-7.31L11.25-7.31ZM16.31-8.58L17.48-8.58L17.48 0L16.31 0L16.31-8.58ZM26.39-8.58L23.16-3.47L23.16 0L21.98 0L21.98-3.47L18.75-8.58L20.11-8.58L22.55-4.45L25.03-8.58L26.39-8.58ZM33.09-3.19L33.09-8.58L34.27-8.58L34.27-3.05Q34.13 0.05 30.75 0.14L30.75 0.14Q27.61 0.05 27.47-2.86L27.47-2.86L27.47-8.58L28.64-8.58L28.64-3.19Q28.69-0.84 30.80-0.80L30.80-0.80Q33.09-0.84 33.09-3.19L33.09-3.19ZM41.72 0L40.88-2.48L37.41-2.48L36.52 0L35.34 0L38.58-8.58L39.89-8.58L42.98 0L41.72 0ZM39.14-7.31L37.78-3.52L40.45-3.52L39.19-7.31L39.14-7.31ZM45.42-8.58L49.73-1.64L49.73-8.58L50.86-8.58L50.86 0L49.55 0L45.19-6.94L45.14-6.94L45.14 0L44.02 0L44.02-8.58L45.42-8.58ZM60.75-7.13L60.70-7.13L58.73 0L57.52 0L55.27-8.58L56.48-8.58L58.13-1.59L58.17-1.59L60.09-8.58L61.36-8.58L63.28-1.59L63.33-1.59L64.92-8.58L66.19-8.58L63.94 0L62.72 0L60.75-7.13ZM68.58-1.03L73.73-1.03L73.73 0L67.41 0L67.41-8.58L73.64-8.58L73.64-7.59L68.58-7.59L68.58-4.92L73.27-4.92L73.27-3.89L68.58-3.89L68.58-1.03ZM75.42-8.58L76.59-8.58L76.59 0L75.42 0L75.42-8.58ZM83.58-1.08L82.69-1.78L83.30-2.48L84.38-1.64Q85.36-2.63 85.36-4.27L85.36-4.27Q85.17-7.64 82.36-7.83L82.36-7.83Q79.50-7.69 79.36-4.27L79.36-4.27Q79.50-0.94 82.36-0.80L82.36-0.80Q83.06-0.80 83.58-1.08L83.58-1.08ZM85.31-0.94L86.44-0.05L85.88 0.56L84.56-0.33Q83.72 0.14 82.36 0.14L82.36 0.14Q78.42 0 78.14-4.27L78.14-4.27Q78.38-8.72 82.36-8.81L82.36-8.81Q86.25-8.67 86.53-4.27L86.53-4.27Q86.48-2.20 85.31-0.94L85.31-0.94ZM88.08-8.58L89.25-8.58L89.25 0L88.08 0L88.08-8.58ZM92.63-8.58L96.94-1.64L96.94-8.58L98.06-8.58L98.06 0L96.75 0L92.39-6.94L92.34-6.94L92.34 0L91.22 0L91.22-8.58L92.63-8.58Z" transform="translate(-0.1875, 8.8125)"></path></g></g></g></g></g><defs v-gra="od"></defs></svg>